<?xml version="1.0" encoding="utf-8"?>
<!-- Generator: Adobe Illustrator 26.2.1, SVG Export Plug-In . SVG Version: 6.00 Build 0)  -->
<svg version="1.1" id="Layer_1" xmlns="http://www.w3.org/2000/svg" xmlns:xlink="http://www.w3.org/1999/xlink" x="0px" y="0px"
	 viewBox="0 0 256 256" style="enable-background:new 0 0 256 256;" xml:space="preserve">
<style type="text/css">
	.st0{fill:#FFFFFF;}
</style>
<g transform="translate(0.000000,256.000000) scale(0.100000,-0.100000)">
	<path class="st0" d="M1170.4,2503c-85.4-23.3-178.4-74-237.6-131.1c-52.5-49.7-113.9-156.5-113.9-198.8c0-20.1-6.6-24.3-32.8-24.3
		c-27.4,0-38.3,7.4-56.9,39.1l-24.1,38.1l-9.9-28.6c-14.2-40.2-1.1-94.1,29.6-125.9l26.3-26.4l-110.6-94.1
		c-61.3-50.8-117.1-104.7-124.8-119.5c-6.6-14.8-27.4-58.2-46-97.3c-24.1-53.9-52.5-89.9-123.7-158.6
		c-162-154.4-187.2-215.8-116-277.1c21.9-18,52.5-55,69-83.6c16.4-27.5,46-63.5,64.6-79.3c23-19,43.8-51.8,61.3-97.3
		C476.3,896.4,528.8,851,623,861.5c28.5,3.2,75.5,18,105.1,31.7c54.7,27.5,153.3,108.9,143.4,118.5c-3.3,3.2-41.6-11.6-86.5-33.8
		c-70.1-34.9-90.9-40.2-155.5-40.2c-71.2,0-76.6,2.1-107.3,33.8c-33.9,37-49.3,78.3-38.3,103.6c4.4,10.6,21.9,15.9,59.1,15.9
		c66.8,0,145.6,37,156.6,74c4.4,14.8,10.9,49.7,15.3,78.3c5.5,40.2,17.5,61.3,52.5,99.4l46,47.6l-42.7-6.3
		c-61.3-9.5-101.8-50.8-116-119.5c-15.3-70.9-44.9-106.8-99.6-120.6c-81-21.2-185,29.6-217.9,105.8c-12,27.5-10.9,34.9,4.4,51.8
		c26.3,27.5,23,56.1-6.6,53.9c-78.8-6.3-70.1,20.1,44.9,132.2c55.8,53.9,113.9,122.7,134.7,158.6c30.7,52.9,46,68.7,95.2,93.1
		c79.9,38.1,155.5,39.1,243,1.1c36.1-15.9,67.9-25.4,71.2-22.2c26.3,24.3-70.1,86.7-160.9,102.6c-50.4,9.5-86.5,30.7-86.5,51.8
		c0,22.2,53.6,82.5,116,132.2c60.2,48.7,78.8,57.1,101.8,51.8c43.8-9.5,124.8-51.8,146.7-75.1c36.1-38.1,75.5-170.3,82.1-267.6
		c6.6-111.1-13.1-180.9-72.3-257c-21.9-28.6-44.9-58.2-50.4-64.5c-7.7-9.5,0-36,20.8-80.4c26.3-55,31.7-82.5,31.7-147
		c1.1-175.6-118.2-304.6-343.8-375.5c-32.8-10.6-62.4-20.1-64.6-22.2c-14.2-11.6-20.8-123.7-10.9-184
		c27.4-168.2,164.2-304.6,375.5-377.6c40.5-12.7,46-12.7,58,4.2c7.7,9.5,14.2,32.8,14.2,50.8c0,40.2,43.8,125.9,65.7,130.1
		c10.9,2.1,26.3-18,43.8-52.9c37.2-76.2,142.3-177.7,228.8-218.9c110.6-55,315.3-95.2,332.8-66.6c3.3,4.2-2.2,45.5-10.9,92
		c-28.5,156.5,4.4,317.3,88.7,425.2c27.4,33.8,86.5,92,132.5,130.1c139,113.2,222.2,206.2,267.1,295.1c38.3,78.3,39.4,83.6,39.4,202
		c0,66.6-2.2,135.4-5.5,152.3c-7.7,41.2,14.2,46.5,47.1,12.7c15.3-14.8,31.7-27.5,37.2-27.5c17.5,0,25.2,99.4,14.2,193.5
		c-23,190.4-96.3,335.3-237.6,468.5c-81,76.2-87.6,94.1-27.4,83.6c94.1-18,96.3-8.5,18.6,82.5c-120.4,140.7-317.5,263.4-515.6,320.5
		C1476.9,2517.8,1264.5,2528.4,1170.4,2503z M1511.9,2438.5c98.5-21.2,214.6-74,300-136.4c67.9-48.7,145.6-124.8,145.6-141.7
		c0-5.3-18.6-12.7-40.5-15.9c-84.3-13.7-101.8-19-101.8-26.4c0-4.2,42.7-33.8,96.3-64.5c169.7-100.5,291.2-242.2,336.1-393.4
		c21.9-75.1,18.6-174.5-5.5-168.2c-36.1,9.5-177.4,13.7-187.2,4.2c-5.5-5.3,8.8-34.9,33.9-71.9c66.8-96.2,90.9-166,92-259.1
		c0-136.4-40.5-192.5-323-449.5c-158.7-144.9-215.7-255.9-225.5-446.3c-6.6-103.6-7.7-108.9-30.7-108.9
		c-42.7,0-156.6,62.4-191.6,105.8c-76.6,94.1-114.9,223.2-107.3,360.7c5.5,95.2,31.7,154.4,119.3,268.6
		c144.5,191.4,174.1,338.4,90.9,460.1c-38.3,55-64.6,57.1-35,3.2c16.4-31.7,19.7-56.1,17.5-114.2c-5.5-98.4-40.5-165-164.2-309.9
		c-53.6-62.4-106.2-132.2-118.2-155.5c-27.4-53.9-44.9-143.8-37.2-184c6.6-27.5,2.2-33.8-35-51.8c-69-33.8-118.2-96.2-156.6-195.7
		c-14.2-36-25.2-36-87.6,2.1c-119.3,74-181.7,168.2-181.7,275v67.7l65.7,26.4c206.9,84.6,317.5,202,347,370.2
		c13.1,74,5.5,148.1-25.2,251.7c-12,40.2-10.9,45.5,15.3,79.3c51.5,65.6,75.5,135.4,81,236.9c6.6,110-10.9,191.4-64.6,298.3
		c-35,68.7-67.9,99.4-147.8,139.6c-46,22.2-47.1,24.3-47.1,75.1C939.4,2375,1210.9,2503,1511.9,2438.5z"/>
	<path class="st0" d="M1426.5,2052.4c-38.3-11.6-89.8-47.6-81-57.1c4.4-3.2,19.7-1.1,36.1,5.3c46,16.9,110.6,12.7,136.8-7.4
		c13.1-10.6,26.3-37,30.7-58.2c7.7-50.8-16.4-88.8-62.4-98.4c-26.3-5.3-39.4-19-61.3-59.2c-31.7-61.3-62.4-67.7-67.9-14.8
		c-5.5,56.1-12,66.6-30.7,43.4c-30.7-41.2-10.9-155.5,29.6-162.9c24.1-4.2,87.6,40.2,119.3,85.7c15.3,21.2,44.9,47.6,65.7,58.2
		c90.9,46.5,116,150.2,53.6,217.9c-18.6,21.2-51.5,42.3-73.3,48.7C1475.8,2065.1,1470.3,2065.1,1426.5,2052.4z"/>
	<path class="st0" d="M1714.5,1550.1c-4.4-3.2,4.4-30.7,18.6-59.2c14.2-29.6,31.7-87.8,39.4-128c16.4-89.9,1.1-212.6-40.5-325.8
		c-17.5-46.5-24.1-79.3-17.5-85.7c15.3-14.8,87.6,69.8,127,149.1c30.7,62.4,33.9,80.4,33.9,165c0,112.1-20.8,166-93.1,242.2
		C1736.3,1556.4,1726.5,1561.7,1714.5,1550.1z"/>
	<path class="st0" d="M638.3,1684.4c-32.8-13.7-62.4-49.7-58-71.9c2.2-13.7,15.3-20.1,48.2-22.2c38.3-3.2,49.3,1.1,69,25.4
		c29.6,37,29.6,63.5-1.1,71.9C666.8,1695,665.7,1695,638.3,1684.4z"/>
</g>
</svg>
